<svg height="512pt" viewBox="0 0 512 512" width="512pt" xmlns="http://www.w3.org/2000/svg"><path d="m496.96875 416.8125h-80.15625v80.15625h-401.78125v-61.617188h-15.03125v76.648438h427.441406l84.558594-84.558594v-225.410156h-15.03125zm-65.125 69.53125v-54.5h54.5zm0 0"/><path d="m463.90625 40.078125v-12.523437c0-15.195313-12.359375-27.554688-27.554688-27.554688-15.191406 0-27.554687 12.359375-27.554687 27.554688v12.523437h-35.066406v-12.523437c0-15.195313-12.363281-27.554688-27.554688-27.554688-15.191406 0-27.554687 12.359375-27.554687 27.554688v12.523437h-35.066406v-12.523437c0-15.195313-12.363282-27.554688-27.554688-27.554688s-27.554688 12.359375-27.554688 27.554688v12.523437h-35.066406v-12.523437c0-15.195313-12.363281-27.554688-27.554687-27.554688-15.191407 0-27.554688 12.359375-27.554688 27.554688v12.523437h-35.066406v-12.523437c0-15.195313-12.363281-27.554688-27.554687-27.554688-15.195313 0-27.554688 12.359375-27.554688 27.554688v12.523437h-48.09375v380.242187h15.03125v-254.996093h353.1875v-15.03125h-353.1875v-95.183594h33.0625v12.523437c0 15.191407 12.359375 27.554688 27.554688 27.554688 15.191406 0 27.554687-12.363281 27.554687-27.554688v-12.523437h35.066406v12.523437c0 15.191407 12.363281 27.554688 27.554688 27.554688 15.191406 0 27.554687-12.363281 27.554687-27.554688v-12.523437h35.066406v12.523437c0 15.191407 12.363282 27.554688 27.554688 27.554688s27.554688-12.363281 27.554688-27.554688v-12.523437h35.066406v12.523437c0 15.191407 12.363281 27.554688 27.554687 27.554688 15.191407 0 27.554688-12.363281 27.554688-27.554688v-12.523437h35.066406v12.523437c0 15.191407 12.363281 27.554688 27.554687 27.554688 15.195313 0 27.554688-12.363281 27.554688-27.554688v-12.523437h33.0625v95.183594h-113.71875v15.03125h113.71875v21.679687h15.03125v-146.925781zm-375.734375 27.554687c0 6.90625-5.617187 12.523438-12.523437 12.523438s-12.523438-5.617188-12.523438-12.523438v-40.078124c0-6.90625 5.617188-12.523438 12.523438-12.523438s12.523437 5.617188 12.523437 12.523438zm90.175781 0c0 6.90625-5.617187 12.523438-12.523437 12.523438s-12.523438-5.617188-12.523438-12.523438v-40.078124c0-6.90625 5.617188-12.523438 12.523438-12.523438s12.523437 5.617188 12.523437 12.523438zm90.175782 0c0 6.90625-5.617188 12.523438-12.523438 12.523438s-12.523438-5.617188-12.523438-12.523438v-40.078124c0-6.90625 5.617188-12.523438 12.523438-12.523438s12.523438 5.617188 12.523438 12.523438zm90.175781 0c0 6.90625-5.617188 12.523438-12.523438 12.523438s-12.523437-5.617188-12.523437-12.523438v-40.078124c0-6.90625 5.617187-12.523438 12.523437-12.523438s12.523438 5.617188 12.523438 12.523438zm90.175781 0c0 6.90625-5.617188 12.523438-12.523438 12.523438s-12.523437-5.617188-12.523437-12.523438v-40.078124c0-6.90625 5.617187-12.523438 12.523437-12.523438s12.523438 5.617188 12.523438 12.523438zm0 0"/><path d="m165.53125 233.980469-10.242188-10.996094c-3.851562 3.585937-7.546874 7.414063-10.984374 11.382813l11.355468 9.84375c3.089844-3.5625 6.414063-7.003907 9.871094-10.230469zm0 0"/><path d="m108.210938 331.148438c0 81.488281 66.296874 147.785156 147.789062 147.785156s147.789062-66.296875 147.789062-147.785156c0-81.492188-66.296874-147.789063-147.789062-147.789063-32.230469 0-62.859375 10.191406-88.574219 29.472656l9.015625 12.027344c23.09375-17.316406 50.605469-26.472656 79.558594-26.472656 73.203125 0 132.757812 59.554687 132.757812 132.761719 0 73.203124-59.554687 132.757812-132.757812 132.757812s-132.757812-59.554688-132.757812-132.757812c0-27.25 8.191406-53.433594 23.691406-75.714844l-12.339844-8.578125c-17.257812 24.8125-26.382812 53.960937-26.382812 84.292969zm0 0"/><path d="m213.417969 243.476562v45.085938h-45.089844v85.167969h45.089844v45.085937h85.164062v-45.085937h45.089844v-85.167969h-45.089844v-45.085938zm115.222656 60.117188v55.105469h-45.085937v45.089843h-55.109376v-45.089843h-45.085937v-55.105469h45.085937v-45.089844h55.109376v45.089844zm0 0"/><path d="m30.058594 481.941406h37.574218v-15.03125h-22.542968v-22.542968h-15.03125zm0 0"/><path d="m30.058594 414.308594h15.03125v15.03125h-15.03125zm0 0"/><path d="m82.660156 466.910156h15.03125v15.03125h-15.03125zm0 0"/><path d="m218.425781 115.226562h15.03125v15.027344h-15.03125zm0 0"/><path d="m248.484375 115.226562h15.03125v15.027344h-15.03125zm0 0"/><path d="m278.542969 115.226562h15.03125v15.027344h-15.03125zm0 0"/></svg>