<svg height="512pt" viewBox="-47 0 512 512" width="512pt" xmlns="http://www.w3.org/2000/svg"><path d="m290.132812 477.867188h-247.464843c-4.710938 0-8.535157-3.824219-8.535157-8.535157v-375.464843c0-4.710938 3.824219-8.535157 8.535157-8.535157h85.332031c4.710938 0 8.535156 3.824219 8.535156 8.535157v8.53125h153.597656v-8.53125c0-4.710938 3.824219-8.535157 8.535157-8.535157h76.796875c4.710937 0 8.535156 3.824219 8.535156 8.535157v290.132812c0 2.261719-.894531 4.4375-2.5 6.03125l-85.332031 85.335938c-1.597657 1.601562-3.773438 2.5-6.035157 2.5zm-238.933593-17.066407h235.402343l80.332032-80.332031v-278.070312h-59.734375v8.535156c0 4.710937-3.820313 8.53125-8.53125 8.53125h-170.667969c-4.710938 0-8.535156-3.820313-8.535156-8.53125v-8.535156h-68.265625zm0 0"/><path d="m387.199219 512h-356.265625c-17.058594 0-30.933594-13.875-30.933594-30.933594v-398.933594c0-17.058593 13.875-30.933593 30.933594-30.933593h97.066406c4.710938 0 8.535156 3.824219 8.535156 8.535156v42.664063h153.597656v-42.664063c0-4.710937 3.824219-8.535156 8.535157-8.535156h88.53125c17.058593 0 30.933593 13.875 30.933593 30.933593v398.933594c0 17.058594-13.875 30.933594-30.933593 30.933594zm-356.265625-443.734375c-7.644532 0-13.867188 6.222656-13.867188 13.867187v398.933594c0 7.644532 6.222656 13.867188 13.867188 13.867188h356.265625c7.648437 0 13.867187-6.222656 13.867187-13.867188v-398.933594c0-7.644531-6.21875-13.867187-13.867187-13.867187h-80v42.667969c0 4.710937-3.820313 8.53125-8.53125 8.53125h-170.667969c-4.710938 0-8.535156-3.820313-8.535156-8.53125v-42.667969zm0 0"/><path d="m298.667969 119.464844h-170.667969c-4.710938 0-8.535156-3.820313-8.535156-8.53125v-68.265625c0-4.710938 3.824218-8.535157 8.535156-8.535157h43.527344c3.960937-19.445312 21.199218-34.132812 41.804687-34.132812 20.609375 0 37.847657 14.6875 41.804688 34.132812h43.53125c4.710937 0 8.53125 3.824219 8.53125 8.535157v68.265625c0 4.710937-3.820313 8.53125-8.53125 8.53125zm-162.132813-17.066406h153.597656v-51.199219h-42.667968c-4.707032 0-8.53125-3.820313-8.53125-8.53125 0-14.117188-11.484375-25.601563-25.601563-25.601563-14.113281 0-25.597656 11.484375-25.597656 25.601563 0 4.710937-3.824219 8.53125-8.535156 8.53125h-42.664063zm119.464844-59.730469h.085938zm0 0"/><path d="m213.332031 76.800781c-4.710937 0-8.53125-3.824219-8.53125-8.535156v-25.597656c0-4.710938 3.820313-8.535157 8.53125-8.535157 4.710938 0 8.535157 3.824219 8.535157 8.535157v25.597656c0 4.710937-3.824219 8.535156-8.535157 8.535156zm0 0"/><path d="m290.132812 477.867188c-1.101562 0-2.210937-.214844-3.269531-.648438-3.179687-1.324219-5.261719-4.4375-5.261719-7.886719v-85.332031c0-4.710938 3.820313-8.535156 8.53125-8.535156h85.332032c3.449218 0 6.5625 2.082031 7.886718 5.265625 1.324219 3.191406.589844 6.863281-1.851562 9.300781l-85.332031 85.335938c-1.632813 1.628906-3.816407 2.5-6.035157 2.5zm8.535157-85.332032v56.199219l56.199219-56.199219zm0 0"/><path d="m247.464844 341.332031h-93.863282c-4.710937 0-8.535156-3.820312-8.535156-8.53125 0-4.710937 3.824219-8.535156 8.535156-8.535156h93.863282c4.710937 0 8.535156 3.824219 8.535156 8.535156 0 4.710938-3.824219 8.53125-8.535156 8.53125zm0 0"/><path d="m332.800781 341.332031h-51.199219c-4.710937 0-8.535156-3.820312-8.535156-8.53125 0-4.710937 3.824219-8.535156 8.535156-8.535156h51.199219c4.710938 0 8.53125 3.824219 8.53125 8.535156 0 4.710938-3.820312 8.53125-8.53125 8.53125zm0 0"/><path d="m119.464844 341.332031h-34.132813c-4.710937 0-8.53125-3.820312-8.53125-8.53125 0-4.710937 3.820313-8.535156 8.53125-8.535156h34.132813c4.710937 0 8.535156 3.824219 8.535156 8.535156 0 4.710938-3.824219 8.53125-8.535156 8.53125zm0 0"/><path d="m247.464844 426.667969h-93.863282c-4.710937 0-8.535156-3.824219-8.535156-8.535157 0-4.710937 3.824219-8.53125 8.535156-8.53125h93.863282c4.710937 0 8.535156 3.820313 8.535156 8.53125 0 4.710938-3.824219 8.535157-8.535156 8.535157zm0 0"/><path d="m119.464844 426.667969h-34.132813c-4.710937 0-8.53125-3.824219-8.53125-8.535157 0-4.710937 3.820313-8.53125 8.53125-8.53125h34.132813c4.710937 0 8.535156 3.820313 8.535156 8.53125 0 4.710938-3.824219 8.535157-8.535156 8.535157zm0 0"/><path d="m179.199219 384h-93.867188c-4.710937 0-8.53125-3.824219-8.53125-8.535156 0-4.707032 3.820313-8.53125 8.53125-8.53125h93.867188c4.710937 0 8.535156 3.824218 8.535156 8.53125 0 4.710937-3.824219 8.535156-8.535156 8.535156zm0 0"/><path d="m247.464844 384h-34.132813c-4.710937 0-8.53125-3.824219-8.53125-8.535156 0-4.707032 3.820313-8.53125 8.53125-8.53125h34.132813c4.710937 0 8.535156 3.824218 8.535156 8.53125 0 4.710937-3.824219 8.535156-8.535156 8.535156zm0 0"/><path d="m281.601562 298.667969h-51.203124c-4.707032 0-8.53125-3.824219-8.53125-8.535157 0-4.710937 3.824218-8.53125 8.53125-8.53125h51.203124c4.707032 0 8.53125 3.820313 8.53125 8.53125 0 4.710938-3.824218 8.535157-8.53125 8.535157zm0 0"/><path d="m332.800781 298.667969h-17.066406c-4.710937 0-8.535156-3.824219-8.535156-8.535157 0-4.710937 3.824219-8.53125 8.535156-8.53125h17.066406c4.710938 0 8.53125 3.820313 8.53125 8.53125 0 4.710938-3.820312 8.535157-8.53125 8.535157zm0 0"/><path d="m332.800781 256h-51.199219c-4.710937 0-8.535156-3.824219-8.535156-8.535156 0-4.707032 3.824219-8.53125 8.535156-8.53125h51.199219c4.710938 0 8.53125 3.824218 8.53125 8.53125 0 4.710937-3.820312 8.535156-8.53125 8.535156zm0 0"/><path d="m247.464844 256h-17.066406c-4.707032 0-8.53125-3.824219-8.53125-8.535156 0-4.707032 3.824218-8.53125 8.53125-8.53125h17.066406c4.710937 0 8.535156 3.824218 8.535156 8.53125 0 4.710937-3.824219 8.535156-8.535156 8.535156zm0 0"/><path d="m281.601562 213.332031h-51.203124c-4.707032 0-8.53125-3.820312-8.53125-8.53125 0-4.710937 3.824218-8.535156 8.53125-8.535156h51.203124c4.707032 0 8.53125 3.824219 8.53125 8.535156 0 4.710938-3.824218 8.53125-8.53125 8.53125zm0 0"/><path d="m332.800781 213.332031h-17.066406c-4.710937 0-8.535156-3.820312-8.535156-8.53125 0-4.710937 3.824219-8.535156 8.535156-8.535156h17.066406c4.710938 0 8.53125 3.824219 8.53125 8.535156 0 4.710938-3.820312 8.53125-8.53125 8.53125zm0 0"/><path d="m332.800781 170.667969h-51.199219c-4.710937 0-8.535156-3.824219-8.535156-8.535157 0-4.710937 3.824219-8.53125 8.535156-8.53125h51.199219c4.710938 0 8.53125 3.820313 8.53125 8.53125 0 4.710938-3.820312 8.535157-8.53125 8.535157zm0 0"/><path d="m247.464844 170.667969h-17.066406c-4.707032 0-8.53125-3.824219-8.53125-8.535157 0-4.710937 3.824218-8.53125 8.53125-8.53125h17.066406c4.710937 0 8.535156 3.820313 8.535156 8.53125 0 4.710938-3.824219 8.535157-8.535156 8.535157zm0 0"/><path d="m136.535156 281.601562c-37.640625 0-68.269531-30.628906-68.269531-68.269531s30.628906-68.265625 68.269531-68.265625 68.265625 30.625 68.265625 68.265625-30.625 68.269531-68.265625 68.269531zm0-119.46875c-28.238281 0-51.203125 22.964844-51.203125 51.199219 0 28.238281 22.964844 51.203125 51.203125 51.203125 28.234375 0 51.199219-22.964844 51.199219-51.203125 0-28.234375-22.964844-51.199219-51.199219-51.199219zm0 0"/><path d="m136.535156 247.464844c-4.710937 0-8.535156-3.820313-8.535156-8.53125v-51.199219c0-4.710937 3.824219-8.535156 8.535156-8.535156 4.707032 0 8.53125 3.824219 8.53125 8.535156v51.199219c0 4.710937-3.824218 8.53125-8.53125 8.53125zm0 0"/><path d="m162.132812 221.867188h-51.199218c-4.710938 0-8.535156-3.824219-8.535156-8.535157 0-4.710937 3.824218-8.53125 8.535156-8.53125h51.199218c4.710938 0 8.535157 3.820313 8.535157 8.53125 0 4.710938-3.824219 8.535157-8.535157 8.535157zm0 0"/></svg>