<?xml version="1.0" encoding="iso-8859-1"?>
<!-- Generator: Adobe Illustrator 17.1.0, SVG Export Plug-In . SVG Version: 6.00 Build 0)  -->
<!DOCTYPE svg PUBLIC "-//W3C//DTD SVG 1.1//EN" "http://www.w3.org/Graphics/SVG/1.1/DTD/svg11.dtd">
<svg version="1.1" id="Capa_1" xmlns="http://www.w3.org/2000/svg" xmlns:xlink="http://www.w3.org/1999/xlink" x="0px" y="0px"
	 viewBox="0 0 422.505 422.505" style="enable-background:new 0 0 422.505 422.505;" xml:space="preserve">
<path d="M173.946,74.015c0-5.523,4.477-10,10-10h17.312V46.703c0-5.523,4.477-10,10-10s10,4.477,10,10v17.312h17.312
	c5.523,0,10,4.477,10,10s-4.477,10-10,10h-17.312v17.313c0,5.523-4.477,10-10,10s-10-4.477-10-10V84.015h-17.312
	C178.423,84.015,173.946,79.538,173.946,74.015z M414.669,412.505c0,5.523-4.477,10-10,10H17.835c-5.523,0-10-4.477-10-10
	s4.477-10,10-10H56.19V74.014c0-5.523,4.477-10,10-10h71.725C142.812,27.913,173.836,0,211.258,0
	c37.421,0,68.445,27.914,73.341,64.015l71.725-0.001c2.652,0,5.196,1.054,7.071,2.929c1.875,1.875,2.929,4.419,2.929,7.071v328.491
	h38.345C410.192,402.505,414.669,406.982,414.669,412.505z M157.242,74.015c0,29.784,24.231,54.015,54.016,54.015
	c29.784,0,54.014-24.231,54.014-54.015S241.042,20,211.258,20C181.474,20,157.242,44.231,157.242,74.015z M201.258,330.476h-51.581
	v72.029h51.576L201.258,330.476z M272.839,330.476h-51.582l-0.005,72.029h51.586V330.476z M346.325,84.014H284.6
	c-4.896,36.101-35.92,64.016-73.341,64.016c-37.422,0-68.447-27.915-73.343-64.016H76.19v318.491h53.487v-82.029
	c0-5.523,4.477-10,10-10h71.581h0h71.581c5.523,0,10,4.477,10,10v82.029h53.485V84.014z M279.986,172.169h34.076
	c5.523,0,10,4.477,10,10v89.148c0,5.523-4.477,10-10,10h-34.076c-5.523,0-10-4.477-10-10v-89.148
	C269.986,176.646,274.463,172.169,279.986,172.169z M289.986,261.317h14.076v-69.148h-14.076V261.317z M238.294,182.169v89.148
	c0,5.523-4.477,10-10,10H194.22c-5.523,0-10-4.477-10-10v-89.148c0-5.523,4.477-10,10-10h34.074
	C233.817,172.169,238.294,176.646,238.294,182.169z M218.294,192.169H204.22v69.148h14.074V192.169z M152.53,182.169v89.148
	c0,5.523-4.477,10-10,10h-34.075c-5.523,0-10-4.477-10-10v-89.148c0-5.523,4.477-10,10-10h34.075
	C148.053,172.169,152.53,176.646,152.53,182.169z M132.53,192.169h-14.075v69.148h14.075V192.169z"/>
<g>
</g>
<g>
</g>
<g>
</g>
<g>
</g>
<g>
</g>
<g>
</g>
<g>
</g>
<g>
</g>
<g>
</g>
<g>
</g>
<g>
</g>
<g>
</g>
<g>
</g>
<g>
</g>
<g>
</g>
</svg>
